<svg id="contactl" xmlns="http://www.w3.org/2000/svg" width="39.85" height="47.229" viewBox="0 0 39.85 47.229">
  <path id="Path_245" data-name="Path 245" d="M135.977,86.259a1.476,1.476,0,0,0-2.087,0l-2.762,2.762A13.335,13.335,0,0,1,125.91,83.8l2.762-2.762a1.476,1.476,0,0,0,0-2.087l-5.74-5.74a1.476,1.476,0,0,0-2.087,0l-3.131,3.131c-1.553,1.552-1.743,4.137-.535,7.276,3.479,9.047,16.519,18.485,21.407,13.6l3.131-3.131a1.476,1.476,0,0,0,0-2.087Zm.522,8.871c-.648.648-2.231.6-4.13-.133-4.906-1.887-10.543-7.515-12.436-12.436-.73-1.9-.781-3.481-.133-4.13l2.087-2.087L125.541,80l-2.087,2.087c-.556.556-.993,1.627.085,3.568,1.582,2.848,6.989,8.143,9.308,5.824l2.087-2.087,3.653,3.653Z" transform="translate(-109.346 -66.068)" fill="#af94c6"/>
  <path id="Path_246" data-name="Path 246" d="M71.728,0H48.114A8.127,8.127,0,0,0,40,8.118V31.732a8.127,8.127,0,0,0,8.118,8.118h6.544l4,6.663a1.477,1.477,0,0,0,2.531,0l4-6.663h6.544a8.127,8.127,0,0,0,8.118-8.118V8.118A8.127,8.127,0,0,0,71.728,0Zm5.166,31.732A5.172,5.172,0,0,1,71.728,36.9h-7.38a1.476,1.476,0,0,0-1.266.717l-3.162,5.27-3.162-5.27a1.476,1.476,0,0,0-1.266-.717h-7.38a5.172,5.172,0,0,1-5.166-5.166V8.118a5.172,5.172,0,0,1,5.166-5.166H71.728a5.172,5.172,0,0,1,5.166,5.166Z" transform="translate(-39.996)" fill="#af94c6"/>
</svg>
