<svg id="favourite" xmlns="http://www.w3.org/2000/svg" width="45.98" height="45.98" viewBox="0 0 45.98 45.98">
  <g id="Group_85" data-name="Group 85">
    <g id="Group_84" data-name="Group 84">
      <ellipse id="Ellipse_229" data-name="Ellipse 229" cx="0.958" cy="0.958" rx="0.958" ry="0.958" transform="translate(3.832 7.663)" fill="#af94c6"/>
      <ellipse id="Ellipse_230" data-name="Ellipse 230" cx="0.958" cy="0.958" rx="0.958" ry="0.958" transform="translate(7.663 7.663)" fill="#af94c6"/>
      <ellipse id="Ellipse_231" data-name="Ellipse 231" cx="0.958" cy="0.958" rx="0.958" ry="0.958" transform="translate(11.495 7.663)" fill="#af94c6"/>
      <path id="Path_247" data-name="Path 247" d="M39.7,0c-1.723,0-3.181,1.212-4.257,2.532C34.366,1.212,32.909,0,31.186,0A6.238,6.238,0,0,0,25.6,3.832H3.832A3.835,3.835,0,0,0,0,7.663V42.148A3.835,3.835,0,0,0,3.832,45.98H38.317a3.835,3.835,0,0,0,3.832-3.832V14.078l2.031-2.263a7.3,7.3,0,0,0,1.8-4.869C45.98,3.115,43.163,0,39.7,0ZM1.916,7.663A1.918,1.918,0,0,1,3.832,5.748H25.015a7.614,7.614,0,0,0-.109,1.2,7.317,7.317,0,0,0,1.567,4.55H1.916ZM40.232,42.148a1.918,1.918,0,0,1-1.916,1.916H3.832a1.918,1.918,0,0,1-1.916-1.916V13.411H28.139l6.591,7.345a.958.958,0,0,0,1.426,0l4.077-4.544Zm2.518-31.61-7.308,8.144-7.305-8.14a5.393,5.393,0,0,1-1.316-3.6c0-2.773,1.958-5.029,4.364-5.029,1.035,0,2.3,1.008,3.458,2.763a.994.994,0,0,0,1.6,0C37.4,2.923,38.666,1.916,39.7,1.916c2.406,0,4.364,2.256,4.364,5.029A5.388,5.388,0,0,1,42.751,10.538Z" fill="#af94c6"/>
    </g>
  </g>
</svg>
