<svg id="video" xmlns="http://www.w3.org/2000/svg" width="43.609" height="49.553" viewBox="0 0 43.609 49.553">
  <path id="Path_242" data-name="Path 242" d="M42.641,20H9.622l31.716-9.188a.968.968,0,0,0,.66-1.2l-1.66-5.729A5.418,5.418,0,0,0,35.157,0a5.362,5.362,0,0,0-1.491.212L3.888,8.838A5.4,5.4,0,0,0,.213,15.51l1.621,5.6V44.167a5.392,5.392,0,0,0,5.386,5.386h11.63a.968.968,0,0,0,0-1.936H7.221a3.454,3.454,0,0,1-3.451-3.451V31h37.9V44.167a3.454,3.454,0,0,1-3.451,3.451H26.593a.968.968,0,0,0,0,1.936h11.63a5.392,5.392,0,0,0,5.386-5.386v-23.2A.968.968,0,0,0,42.641,20ZM25.575,29.06l4.112-7.122h5.348L30.924,29.06Zm-7.584,0L22.1,21.939h5.348L23.34,29.06Zm-7.583,0,4.112-7.122h5.349L15.757,29.06Zm3.6-12.529L7.121,9.917,12.28,8.423a.96.96,0,0,0,.127.149l6.886,6.614L14.134,16.68a.963.963,0,0,0-.127-.149ZM26.975,4.352l6.886,6.614L28.7,12.46a.943.943,0,0,0-.127-.149L21.689,5.7,26.848,4.2A.96.96,0,0,0,26.975,4.352Zm-7.284,2.11,6.886,6.613-5.159,1.495a.943.943,0,0,0-.127-.149L14.4,7.807l5.159-1.494A1.022,1.022,0,0,0,19.691,6.462ZM34.2,2.072a3.422,3.422,0,0,1,.952-.136,3.473,3.473,0,0,1,3.322,2.49l1.39,4.8L35.986,10.35a.984.984,0,0,0-.127-.149L28.973,3.587ZM2.369,12.35A3.425,3.425,0,0,1,4.427,10.7L5,10.533a.984.984,0,0,0,.127.149L12.008,17.3,3.463,19.771l-1.39-4.8a3.426,3.426,0,0,1,.3-2.622Zm1.4,9.589h8.514L8.173,29.06h-4.4ZM33.159,29.06l4.112-7.122h4.4V29.06Zm0,0" transform="translate(0 0)" fill="#af94c6" fill-rule="evenodd"/>
  <path id="Path_243" data-name="Path 243" d="M206.505,350.268a.967.967,0,0,0-.484-.838l-8.5-4.909a.968.968,0,0,0-1.452.838v9.818a.967.967,0,0,0,1.452.838l8.5-4.909A.968.968,0,0,0,206.505,350.268ZM198,353.5v-6.466l5.6,3.233Zm0,0" transform="translate(-177.843 -311.06)" fill="#af94c6" fill-rule="evenodd"/>
  <path id="Path_244" data-name="Path 244" d="M225.741,492a.968.968,0,1,0,.968.968A.97.97,0,0,0,225.741,492Zm0,0" transform="translate(-197.756 -444.383)" fill="#af94c6" fill-rule="evenodd"/>
</svg>
