<?xml version="1.0" encoding="utf-8"?>
<!-- Generator: Adobe Illustrator 24.0.0, SVG Export Plug-In . SVG Version: 6.00 Build 0)  -->
<svg version="1.1" id="Layer_1" xmlns:serif="http://www.serif.com/"
	 xmlns="http://www.w3.org/2000/svg" xmlns:xlink="http://www.w3.org/1999/xlink" x="0px" y="0px" viewBox="0 0 288 288"
	 style="enable-background:new 0 0 288 288;" xml:space="preserve">
<style type="text/css">
	.st0{fill-rule:evenodd;clip-rule:evenodd;fill:#FFFFFF;}
</style>
<path class="st0" d="M144,0c79.5,0,144,64.5,144,144s-64.5,144-144,144S0,223.5,0,144S64.5,0,144,0z M230.2,100.7
	c-2.1-7.7-8.2-13.8-15.9-15.9C200.3,81,144,81,144,81s-56.3,0-70.3,3.8c-7.7,2.1-13.8,8.2-15.9,15.9C54,114.7,54,144,54,144
	s0,29.3,3.8,43.3c2.1,7.7,8.2,13.8,15.9,15.9c14,3.8,70.3,3.8,70.3,3.8s56.3,0,70.3-3.8c7.7-2.1,13.8-8.2,15.9-15.9
	c3.8-14,3.8-43.3,3.8-43.3S234,114.7,230.2,100.7z M126,171v-54l46.8,27C172.8,144,126,171,126,171z"/>
</svg>
