<?xml version="1.0" encoding="utf-8"?>
<!-- Generator: Adobe Illustrator 24.0.0, SVG Export Plug-In . SVG Version: 6.00 Build 0)  -->
<svg version="1.1" id="Layer_1" xmlns:serif="http://www.serif.com/"
	 xmlns="http://www.w3.org/2000/svg" xmlns:xlink="http://www.w3.org/1999/xlink" x="0px" y="0px" viewBox="0 0 288 288"
	 style="enable-background:new 0 0 288 288;" xml:space="preserve">
<style type="text/css">
	.st0{fill-rule:evenodd;clip-rule:evenodd;fill:#FFFFFF;}
</style>
<path class="st0" d="M144,0c79.5,0,144,64.5,144,144s-64.5,144-144,144S0,223.5,0,144S64.5,0,144,0z M118.6,220.6
	c63.7,0,98.6-52.8,98.6-98.6c0-1.5,0-3-0.1-4.5c6.8-4.9,12.6-11,17.3-18c-6.2,2.7-12.9,4.6-19.9,5.5c7.2-4.3,12.6-11.1,15.2-19.2
	c-6.7,4-14.1,6.8-22,8.4c-6.3-6.8-15.3-10.9-25.3-10.9c-19.1,0-34.6,15.5-34.6,34.6c0,2.7,0.3,5.4,0.9,7.9
	c-28.8-1.4-54.3-15.2-71.4-36.2c-2.9,5.1-4.7,11.1-4.7,17.4c0,12,6.1,22.6,15.4,28.8c-5.7-0.1-11-1.7-15.7-4.3v0.4
	c0,16.8,11.9,30.7,27.8,34c-2.9,0.8-6,1.2-9.1,1.2c-2.2,0-4.4-0.2-6.5-0.6c4.4,13.8,17.2,23.8,32.3,24.1
	c-11.9,9.3-26.8,14.8-43,14.8c-2.8,0-5.5-0.1-8.3-0.5C80.8,214.8,99.1,220.6,118.6,220.6L118.6,220.6z"/>
</svg>
