<?xml version="1.0" encoding="utf-8"?>
<!-- Generator: Adobe Illustrator 24.0.0, SVG Export Plug-In . SVG Version: 6.00 Build 0)  -->
<svg version="1.1" id="Layer_1" xmlns:serif="http://www.serif.com/"
	 xmlns="http://www.w3.org/2000/svg" xmlns:xlink="http://www.w3.org/1999/xlink" x="0px" y="0px" viewBox="0 0 288 288"
	 style="enable-background:new 0 0 288 288;" xml:space="preserve">
<style type="text/css">
	.st0{fill-rule:evenodd;clip-rule:evenodd;fill:#FFFFFF;}
</style>
<path class="st0" d="M143.4,288l0.1,0L143.4,288C143.5,288,143.4,288,143.4,288z M144.5,288L144.5,288L144.5,288L144.5,288z
	 M143,288l0.1,0L143,288L143,288z M144.9,288L144.9,288L144.9,288L144.9,288z M142.6,288L142.6,288L142.6,288
	C142.6,288,142.6,288,142.6,288z M145.4,288L145.4,288L145.4,288L145.4,288L145.4,288z M145.9,288L145.9,288L145.9,288L145.9,288
	L145.9,288z M142,288l0.1,0L142,288L142,288L142,288z M146.3,288L146.3,288L146.3,288L146.3,288L146.3,288z M141.6,288l0.2,0
	L141.6,288L141.6,288L141.6,288z M146.8,288l-0.1,0L146.8,288L146.8,288z M141.2,288l0.1,0L141.2,288C141.2,288,141.2,288,141.2,288
	z M140.6,288l0.1,0l0,0C140.7,288,140.6,288,140.6,288z M147.3,288L147.3,288l0.1,0L147.3,288z M140.2,287.9l0.2,0l-0.1,0
	L140.2,287.9z M147.7,288L147.7,288l0.1,0L147.7,288z M148.2,287.9l-0.1,0L148.2,287.9L148.2,287.9L148.2,287.9z M139.8,287.9l0.2,0
	L139.8,287.9C139.8,287.9,139.8,287.9,139.8,287.9z M139.4,287.9l0.1,0L139.4,287.9l-0.1,0L139.4,287.9z M148.6,287.9l-0.1,0
	L148.6,287.9l0.1,0L148.6,287.9z M149.1,287.9L149.1,287.9l0.1,0L149.1,287.9z M138.8,287.9l0.2,0l-0.1,0L138.8,287.9z M138.3,287.9
	l0.2,0L138.3,287.9L138.3,287.9z M149.6,287.9l-0.1,0L149.6,287.9L149.6,287.9z M137.9,287.9l0.2,0L137.9,287.9L137.9,287.9
	L137.9,287.9z M150,287.9l-0.2,0L150,287.9L150,287.9L150,287.9z M137.4,287.8l0.2,0l-0.1,0L137.4,287.8z M150.5,287.9L150.5,287.9
	l0.2,0L150.5,287.9L150.5,287.9z M136.9,287.8l0.2,0l-0.1,0L136.9,287.8z M150.9,287.8l-0.1,0l0.2,0L150.9,287.8z M136.5,287.8
	l0.2,0L136.5,287.8L136.5,287.8z M151.4,287.8l-0.2,0L151.4,287.8L151.4,287.8z M151.9,287.8l-0.2,0L151.9,287.8l0.2,0L151.9,287.8
	L151.9,287.8z M136.2,287.8l0.2,0L136.2,287.8l-0.2,0L136.2,287.8L136.2,287.8z M152.3,287.8L152.3,287.8l0.1,0L152.3,287.8z
	 M135.5,287.8l0.2,0l-0.1,0L135.5,287.8z M135.1,287.7l0.2,0L135.1,287.7L135.1,287.7L135.1,287.7z M152.8,287.7l-0.1,0L152.8,287.7
	L152.8,287.7L152.8,287.7z M134.7,287.7l0.2,0L134.7,287.7l-0.2,0C134.6,287.7,134.7,287.7,134.7,287.7z M153.2,287.7l-0.2,0
	L153.2,287.7l0.2,0L153.2,287.7L153.2,287.7z M153.7,287.7L153.7,287.7l0.1,0L153.7,287.7L153.7,287.7z M134.2,287.7l0.2,0l-0.1,0
	L134.2,287.7z M133.7,287.6l0.2,0L133.7,287.6C133.8,287.6,133.7,287.6,133.7,287.6z M154.2,287.6l-0.1,0L154.2,287.6L154.2,287.6z
	 M133.3,287.6l0.2,0L133.3,287.6L133.3,287.6L133.3,287.6z M154.6,287.6l-0.2,0L154.6,287.6L154.6,287.6L154.6,287.6z M132.8,287.6
	l0.2,0l0,0L132.8,287.6z M155.1,287.6L155.1,287.6l0.1,0L155.1,287.6z M155.5,287.5L155.5,287.5L155.5,287.5L155.5,287.5z
	 M132.4,287.5l0.2,0L132.4,287.5C132.5,287.5,132.4,287.5,132.4,287.5z M132,287.5l0.1,0L132,287.5L132,287.5z M156,287.5l-0.1,0
	L156,287.5L156,287.5z M131.5,287.5L131.5,287.5L131.5,287.5L131.5,287.5L131.5,287.5z M156.4,287.5L156.4,287.5L156.4,287.5
	L156.4,287.5L156.4,287.5z M156.9,287.4L156.9,287.4L156.9,287.4L156.9,287.4L156.9,287.4z M131,287.4l0.1,0L131,287.4L131,287.4
	L131,287.4z M130.6,287.4L130.6,287.4L130.6,287.4L130.6,287.4z M157.4,287.4L157.4,287.4L157.4,287.4L157.4,287.4z M121.5,286.2
	C52.7,275.4,0,215.8,0,144C0,64.5,64.5,0,144,0s144,64.5,144,144c0,71.8-52.7,131.4-121.5,142.2V185.6h33.6l6.4-41.6h-39.9v-27
	c0-11.4,5.6-22.5,23.5-22.5h18.2V59.1c0,0-16.5-2.8-32.2-2.8c-32.9,0-54.4,19.9-54.4,56V144H84.9v41.6h36.6V286.2z"/>
</svg>
