<svg id="Instagram" xmlns="http://www.w3.org/2000/svg" width="39" height="45" viewBox="0 0 39 45">
  <path id="Path_3" data-name="Path 3" d="M14.5,2.578a44.46,44.46,0,0,1,5.8.161,7.473,7.473,0,0,1,2.739.483,5.658,5.658,0,0,1,2.739,2.739A7.473,7.473,0,0,1,26.261,8.7c0,1.45.161,1.933.161,5.8a44.46,44.46,0,0,1-.161,5.8,7.473,7.473,0,0,1-.483,2.739,5.658,5.658,0,0,1-2.739,2.739,7.473,7.473,0,0,1-2.739.483c-1.45,0-1.933.161-5.8.161a44.46,44.46,0,0,1-5.8-.161,7.473,7.473,0,0,1-2.739-.483,5.658,5.658,0,0,1-2.739-2.739A7.473,7.473,0,0,1,2.739,20.3c0-1.45-.161-1.933-.161-5.8a44.46,44.46,0,0,1,.161-5.8,7.473,7.473,0,0,1,.483-2.739A5.786,5.786,0,0,1,4.35,4.35,2.724,2.724,0,0,1,5.961,3.222,7.473,7.473,0,0,1,8.7,2.739a44.46,44.46,0,0,1,5.8-.161M14.5,0A47.6,47.6,0,0,0,8.539.161,9.946,9.946,0,0,0,4.994.806,6.307,6.307,0,0,0,2.417,2.417,6.307,6.307,0,0,0,.806,4.994,7.341,7.341,0,0,0,.161,8.539,47.6,47.6,0,0,0,0,14.5a47.6,47.6,0,0,0,.161,5.961,9.946,9.946,0,0,0,.644,3.544,6.307,6.307,0,0,0,1.611,2.578,6.307,6.307,0,0,0,2.578,1.611,9.946,9.946,0,0,0,3.544.644A47.6,47.6,0,0,0,14.5,29a47.6,47.6,0,0,0,5.961-.161,9.946,9.946,0,0,0,3.544-.644,6.759,6.759,0,0,0,4.189-4.189,9.946,9.946,0,0,0,.644-3.544c0-1.611.161-2.094.161-5.961a47.6,47.6,0,0,0-.161-5.961,9.946,9.946,0,0,0-.644-3.544,6.307,6.307,0,0,0-1.611-2.578A6.307,6.307,0,0,0,24.006.806,9.946,9.946,0,0,0,20.461.161,47.6,47.6,0,0,0,14.5,0m0,7.089A7.292,7.292,0,0,0,7.089,14.5,7.411,7.411,0,1,0,14.5,7.089m0,12.244A4.747,4.747,0,0,1,9.667,14.5,4.747,4.747,0,0,1,14.5,9.667,4.747,4.747,0,0,1,19.333,14.5,4.747,4.747,0,0,1,14.5,19.333M22.233,4.994a1.772,1.772,0,1,0,1.772,1.772,1.788,1.788,0,0,0-1.772-1.772" fill="#6d3e98" fill-rule="evenodd"/>
</svg>
