<svg id="Twitter" xmlns="http://www.w3.org/2000/svg" width="49" height="38.744" viewBox="0 0 49 38.744">
  <path id="Path_2" data-name="Path 2" d="M49.613,31.744C63.466,31.744,71,20.336,71,10.353V9.334a16.56,16.56,0,0,0,3.667-3.871,16.912,16.912,0,0,1-4.278,1.222,7.926,7.926,0,0,0,3.26-4.075,18.686,18.686,0,0,1-4.686,1.834A7.276,7.276,0,0,0,63.466,2a7.654,7.654,0,0,0-7.538,7.538,3.972,3.972,0,0,0,.2,1.63A21.063,21.063,0,0,1,40.648,3.222,7.8,7.8,0,0,0,39.63,7.093a8.094,8.094,0,0,0,3.26,6.316,6.868,6.868,0,0,1-3.463-1.019h0a7.446,7.446,0,0,0,6.112,7.334,6.281,6.281,0,0,1-2.037.2,3.467,3.467,0,0,1-1.426-.2,7.718,7.718,0,0,0,7.131,5.3,15.382,15.382,0,0,1-9.372,3.26,5.64,5.64,0,0,1-1.834-.2,19.23,19.23,0,0,0,11.613,3.667" transform="translate(-38 -2)" fill="#af94c6" fill-rule="evenodd"/>
</svg>
